<svg
  data-v-423bf9ae=""
  xmlns="http://www.w3.org/2000/svg"
  viewBox="0 0 536 98"
  class="iconLeft"
>
  <!----><!----><!---->
  <g data-v-423bf9ae="" id="f2b7bea5-0a0e-4247-ab5c-324515b7efbb" fill="black" transform="matrix(5.3523639425355505,0,0,5.3523639425355505,98.35591156672973,13.332312703647261)">
    <path d="M0.57 12.01L0.57 12.01L2.90 1.24L2.90 1.24Q2.94 1.05 3.14 1.05L3.14 1.05L5.08 1.05L5.08 1.05Q5.28 1.05 5.32 1.24L5.32 1.24L7.64 12.01L7.64 12.01Q7.65 12.04 7.65 12.08L7.65 12.08L7.65 12.08Q7.65 12.25 7.45 12.25L7.45 12.25L5.96 12.25L5.96 12.25Q5.78 12.25 5.74 12.05L5.74 12.05L5.35 10.01L2.86 10.01L2.47 12.05L2.47 12.05Q2.43 12.25 2.26 12.25L2.26 12.25L0.76 12.25L0.76 12.25Q0.56 12.25 0.56 12.10L0.56 12.10L0.56 12.10Q0.56 12.06 0.57 12.01ZM4.10 3.50L3.21 8.39L5.00 8.39L4.10 3.50ZM8.76 12.02L8.76 12.02L8.76 2.67L8.76 2.67Q8.76 2.57 8.83 2.51L8.83 2.51L8.83 2.51Q8.89 2.45 8.99 2.45L8.99 2.45L12.35 2.45L12.35 2.45Q13.34 2.45 13.86 2.96L13.86 2.96L13.86 2.96Q14.37 3.47 14.37 4.46L14.37 4.46L14.37 7.21L14.37 7.21Q14.37 8.19 13.86 8.71L13.86 8.71L13.86 8.71Q13.34 9.22 12.35 9.23L12.35 9.23L10.59 9.24L10.59 12.04L10.59 12.04Q10.59 12.26 10.36 12.26L10.36 12.26L8.99 12.25L8.99 12.25Q8.89 12.25 8.83 12.19L8.83 12.19L8.83 12.19Q8.76 12.13 8.76 12.02ZM10.59 4.27L10.59 7.43L11.98 7.42L11.98 7.42Q12.54 7.42 12.54 6.86L12.54 6.86L12.54 4.82L12.54 4.82Q12.54 4.26 11.98 4.26L11.98 4.26L10.59 4.27ZM15.76 12.02L15.76 12.02L15.76 2.67L15.76 2.67Q15.76 2.57 15.83 2.51L15.83 2.51L15.83 2.51Q15.89 2.45 15.99 2.45L15.99 2.45L19.35 2.45L19.35 2.45Q20.34 2.45 20.86 2.96L20.86 2.96L20.86 2.96Q21.37 3.47 21.37 4.46L21.37 4.46L21.37 7.21L21.37 7.21Q21.37 8.19 20.86 8.71L20.86 8.71L20.86 8.71Q20.34 9.22 19.35 9.23L19.35 9.23L17.59 9.24L17.59 12.04L17.59 12.04Q17.59 12.26 17.36 12.26L17.36 12.26L15.99 12.25L15.99 12.25Q15.89 12.25 15.83 12.19L15.83 12.19L15.83 12.19Q15.76 12.13 15.76 12.02ZM17.59 4.27L17.59 7.43L18.98 7.42L18.98 7.42Q19.54 7.42 19.54 6.86L19.54 6.86L19.54 4.82L19.54 4.82Q19.54 4.26 18.98 4.26L18.98 4.26L17.59 4.27ZM26.26 12.02L26.26 12.02L26.26 1.27L26.26 1.27Q26.26 1.05 26.49 1.05L26.49 1.05L31.64 1.05L31.64 1.05Q31.87 1.05 31.87 1.27L31.87 1.27L31.87 2.67L31.87 2.67Q31.87 2.78 31.81 2.84L31.81 2.84L31.81 2.84Q31.75 2.90 31.64 2.90L31.64 2.90L28.17 2.90L28.17 5.71L30.80 5.71L30.80 5.71Q31.03 5.71 31.03 5.93L31.03 5.93L31.03 7.33L31.03 7.33Q31.03 7.56 30.80 7.56L30.80 7.56L28.17 7.56L28.17 12.02L28.17 12.02Q28.17 12.13 28.11 12.19L28.11 12.19L28.11 12.19Q28.05 12.25 27.95 12.25L27.95 12.25L26.49 12.25L26.49 12.25Q26.26 12.25 26.26 12.02ZM33.26 12.02L33.26 12.02L33.26 2.67L33.26 2.67Q33.26 2.57 33.32 2.51L33.32 2.51L33.32 2.51Q33.38 2.45 33.48 2.45L33.48 2.45L38.63 2.45L38.63 2.45Q38.86 2.45 38.86 2.67L38.86 2.67L38.86 4.07L38.86 4.07Q38.86 4.31 38.63 4.31L38.63 4.31L35.17 4.31L35.17 6.47L37.80 6.47L37.80 6.47Q38.03 6.47 38.03 6.71L38.03 6.71L38.03 8.09L38.03 8.09Q38.03 8.33 37.80 8.33L37.80 8.33L35.17 8.33L35.17 10.40L38.63 10.40L38.63 10.40Q38.76 10.40 38.81 10.45L38.81 10.45L38.81 10.45Q38.86 10.50 38.86 10.62L38.86 10.62L38.86 12.02L38.86 12.02Q38.86 12.25 38.63 12.25L38.63 12.25L33.48 12.25L33.48 12.25Q33.38 12.25 33.32 12.19L33.32 12.19L33.32 12.19Q33.26 12.13 33.26 12.02ZM40.24 12.02L40.24 12.02L40.24 2.67L40.24 2.67Q40.24 2.57 40.30 2.51L40.30 2.51L40.30 2.51Q40.36 2.45 40.46 2.45L40.46 2.45L45.61 2.45L45.61 2.45Q45.83 2.45 45.83 2.67L45.83 2.67L45.83 4.07L45.83 4.07Q45.83 4.31 45.61 4.31L45.61 4.31L42.15 4.31L42.15 6.47L44.78 6.47L44.78 6.47Q45.01 6.47 45.01 6.71L45.01 6.71L45.01 8.09L45.01 8.09Q45.01 8.33 44.78 8.33L44.78 8.33L42.15 8.33L42.15 10.40L45.61 10.40L45.61 10.40Q45.74 10.40 45.79 10.45L45.79 10.45L45.79 10.45Q45.83 10.50 45.83 10.62L45.83 10.62L45.83 12.02L45.83 12.02Q45.83 12.25 45.61 12.25L45.61 12.25L40.46 12.25L40.46 12.25Q40.36 12.25 40.30 12.19L40.30 12.19L40.30 12.19Q40.24 12.13 40.24 12.02ZM47.22 12.02L47.22 12.02L47.22 2.67L47.22 2.67Q47.22 2.45 47.45 2.45L47.45 2.45L50.81 2.45L50.81 2.45Q51.80 2.45 52.32 2.97L52.32 2.97L52.32 2.97Q52.83 3.49 52.83 4.48L52.83 4.48L52.83 10.23L52.83 10.23Q52.83 11.22 52.32 11.74L52.32 11.74L52.32 11.74Q51.80 12.25 50.81 12.25L50.81 12.25L47.45 12.25L47.45 12.25Q47.22 12.25 47.22 12.02ZM49.13 4.30L49.13 10.40L50.42 10.40L50.42 10.40Q50.98 10.40 50.98 9.84L50.98 9.84L50.98 4.87L50.98 4.87Q50.98 4.30 50.42 4.30L50.42 4.30L49.13 4.30ZM54.22 12.02L54.22 12.02L54.22 2.67L54.22 2.67Q54.22 2.45 54.45 2.45L54.45 2.45L57.81 2.45L57.81 2.45Q58.80 2.45 59.32 2.96L59.32 2.96L59.32 2.96Q59.84 3.47 59.84 4.46L59.84 4.46L59.84 6.36L59.84 6.36Q59.84 6.74 59.59 7.01L59.59 7.01L59.59 7.01Q59.34 7.29 58.96 7.35L58.96 7.35L58.96 7.38L58.96 7.38Q59.34 7.44 59.59 7.71L59.59 7.71L59.59 7.71Q59.84 7.99 59.84 8.37L59.84 8.37L59.84 10.23L59.84 10.23Q59.84 11.22 59.32 11.74L59.32 11.74L59.32 11.74Q58.80 12.25 57.81 12.25L57.81 12.25L54.45 12.25L54.45 12.25Q54.35 12.25 54.28 12.19L54.28 12.19L54.28 12.19Q54.22 12.13 54.22 12.02ZM55.96 8.29L55.96 10.49L57.50 10.49L57.50 10.49Q58.06 10.49 58.06 9.93L58.06 9.93L58.06 8.85L58.06 8.85Q58.06 8.29 57.50 8.29L57.50 8.29L55.96 8.29ZM55.96 4.21L55.96 6.44L57.50 6.44L57.50 6.44Q57.78 6.44 57.92 6.30L57.92 6.30L57.92 6.30Q58.06 6.15 58.06 5.89L58.06 5.89L58.06 4.77L58.06 4.77Q58.06 4.21 57.50 4.21L57.50 4.21L55.96 4.21ZM60.69 12.01L60.69 12.01L63.01 2.65L63.01 2.65Q63.05 2.45 63.25 2.45L63.25 2.45L65.20 2.45L65.20 2.45Q65.40 2.45 65.44 2.65L65.44 2.65L67.76 12.01L67.76 12.01Q67.78 12.06 67.78 12.09L67.78 12.09L67.78 12.09Q67.78 12.25 67.57 12.25L67.57 12.25L66.21 12.25L66.21 12.25Q66.03 12.25 65.99 12.05L65.99 12.05L65.54 10.29L62.90 10.29L62.47 12.05L62.47 12.05Q62.43 12.25 62.25 12.25L62.25 12.25L60.87 12.25L60.87 12.25Q60.68 12.25 60.68 12.10L60.68 12.10L60.68 12.10Q60.68 12.06 60.69 12.01ZM64.22 4.86L63.34 8.67L65.11 8.67L64.22 4.86ZM68.48 10.23L68.48 10.23L68.48 4.46L68.48 4.46Q68.48 3.47 69.00 2.96L69.00 2.96L69.00 2.96Q69.51 2.45 70.51 2.45L70.51 2.45L72.08 2.45L72.08 2.45Q73.06 2.45 73.58 2.96L73.58 2.96L73.58 2.96Q74.09 3.48 74.09 4.46L74.09 4.46L74.09 5.97L74.09 5.97Q74.09 6.08 74.03 6.14L74.03 6.14L74.03 6.14Q73.97 6.20 73.87 6.20L73.87 6.20L72.55 6.20L72.55 6.20Q72.33 6.20 72.33 5.97L72.33 5.97L72.33 4.83L72.33 4.83Q72.33 4.27 71.77 4.27L71.77 4.27L70.88 4.27L70.88 4.27Q70.31 4.27 70.31 4.83L70.31 4.83L70.31 9.91L70.31 9.91Q70.31 10.47 70.88 10.47L70.88 10.47L71.77 10.47L71.77 10.47Q72.33 10.47 72.33 9.91L72.33 9.91L72.33 8.72L72.33 8.72Q72.33 8.50 72.55 8.50L72.55 8.50L73.87 8.50L73.87 8.50Q73.97 8.50 74.03 8.56L74.03 8.56L74.03 8.56Q74.09 8.62 74.09 8.72L74.09 8.72L74.09 10.23L74.09 10.23Q74.09 11.22 73.58 11.73L73.58 11.73L73.58 11.73Q73.06 12.25 72.08 12.25L72.08 12.25L70.51 12.25L70.51 12.25Q69.51 12.25 69.00 11.74L69.00 11.74L69.00 11.74Q68.48 11.22 68.48 10.23ZM75.49 11.97L75.49 11.97L75.49 2.73L75.49 2.73Q75.49 2.45 75.77 2.45L75.77 2.45L77.12 2.45L77.12 2.45Q77.40 2.45 77.40 2.73L77.40 2.73L77.40 6.37L79.55 2.66L79.55 2.66Q79.67 2.45 79.87 2.45L79.87 2.45L81.34 2.45L81.34 2.45Q81.50 2.45 81.56 2.55L81.56 2.55L81.56 2.55Q81.62 2.65 81.54 2.79L81.54 2.79L79.16 6.97L81.70 11.93L81.70 11.93Q81.74 12.00 81.74 12.07L81.74 12.07L81.74 12.07Q81.74 12.11 81.71 12.15L81.71 12.15L81.71 12.15Q81.66 12.25 81.48 12.25L81.48 12.25L80.00 12.25L80.00 12.25Q79.78 12.25 79.68 12.04L79.68 12.04L77.92 8.58L77.40 9.58L77.40 11.97L77.40 11.97Q77.40 12.25 77.12 12.25L77.12 12.25L75.77 12.25L75.77 12.25Q75.49 12.25 75.49 11.97Z">
    </path>
  </g
  ><!---->
  <g data-v-423bf9ae="" id="ccfcee88-42cb-4f48-8fd2-25e53a91abb9" transform="matrix(1.0429902818467882,0,0,1.0429902818467882,-11.149514092339409,-3.0868266318562974)" stroke="none" fill="black">
    <path d="M53.623 79.823l-12.987-12.56a2.54 2.54 0 0 0-2.439.103A2.41 2.41 0 0 0 37 69.44V77h-5c-6.168 0-11-4.832-11-11V34.129C21 27.992 25.992 23 32.129 23a5 5 0 0 0 0-10C20.479 13 11 22.479 11 34.129V66c0 11.579 9.42 21 21 21h5v7.562c0 .844.451 1.635 1.196 2.074a2.567 2.567 0 0 0 2.44.103l12.987-12.56C54.395 83.459 55 82.923 55 82c0-.92-.516-1.421-1.377-2.177zM67.871 13H64V5.566c0-.844-.493-1.635-1.238-2.074a2.624 2.624 0 0 0-2.471-.102L47.298 15.95c-.772.721-1.38 1.257-1.38 2.18 0 .92.515 1.421 1.376 2.177l12.987 12.56c.772.39 1.742.34 2.481-.103.745-.441 1.238-1.228 1.238-2.075V23h3.871C74.008 23 79 27.992 79 34.129V65.871C79 72.008 74.008 77 67.871 77c-2.762 0-5 2.238-5 5s2.238 5 5 5C79.521 87 89 77.521 89 65.871V34.129C89 22.479 79.521 13 67.871 13z">
    </path>
  </g><!---->
</svg>
